# xmcd CD database file
#
# Track frame offsets:
#	150
#	17051
#	35847
#	50448
#	64929
#	79512
#	94868
#	108972
#	125248
#	139986
#
# Disc length: 2076 seconds
#
# Revision: 3
# Processed by: cddbd v1.5.2PL0 Copyright (c) Steve Scherf et al.
# Submitted via: Feurio! 1.68 - http://www.feurio.com
#
DISCID=8c081a0a
DTITLE=Victor and Leo - Nada es normal
DYEAR=1900
DGENRE=country
TTITLE0=Recuerdos de amor
TTITLE1=Amigo apasionado
TTITLE2=Nada es normal
TTITLE3=Sigo extrañandote
TTITLE4=Fotos
TTITLE5=Nada
TTITLE6=Eres tú
TTITLE7=Nueva York
TTITLE8=Mariposas
TTITLE9=Sabías
EXTD=
EXTT0=
EXTT1=
EXTT2=
EXTT3=
EXTT4=
EXTT5=
EXTT6=
EXTT7=
EXTT8=
EXTT9=
PLAYORDER=
